<?xml version="1.0" standalone="no"?>
<!DOCTYPE svg PUBLIC "-//W3C//DTD SVG 20010904//EN"
 "http://www.w3.org/TR/2001/REC-SVG-20010904/DTD/svg10.dtd">
<svg version="1.0" xmlns="http://www.w3.org/2000/svg"
 width="500.000000pt" height="500.000000pt" viewBox="0 0 500.000000 500.000000"
 preserveAspectRatio="xMidYMid meet">

<g transform="translate(0.000000,500.000000) scale(0.100000,-0.100000)"
fill="#000000" stroke="none">
<path d="M372 4958 c-55 -12 -117 -72 -132 -126 -7 -28 -9 -741 -8 -2339 l3
-2299 28 -42 c15 -23 46 -51 70 -64 l42 -22 1020 -7 c607 -4 1087 -12 1186
-19 128 -9 203 -9 330 1 99 7 547 14 1124 19 528 3 961 7 963 8 1 1 2 998 2
2216 l0 2214 -116 111 -116 111 -294 0 -294 0 0 65 0 65 314 0 314 0 96 -91
96 -91 0 79 0 79 -70 69 -71 70 -2222 1 c-1404 1 -2238 -2 -2265 -8z m936
-495 c-1 -214 -4 -321 -5 -240 l-4 148 -52 -6 c-28 -4 -55 -9 -59 -12 -5 -2
-8 0 -8 6 0 5 6 12 13 14 6 3 -4 5 -23 5 -19 0 -27 -2 -17 -5 9 -2 17 -9 17
-15 0 -17 -120 -2 -240 31 -63 18 -133 31 -155 30 -51 -3 -125 29 -118 50 3
12 1 11 -7 -1 -12 -19 -76 -26 -65 -8 3 6 1 10 -5 10 -7 0 -23 9 -37 20 -14
11 -34 20 -44 20 -13 0 -19 9 -22 33 -2 17 -5 -407 -6 -943 -2 -536 -6 -1015
-10 -1065 l-6 -90 -50 0 -50 0 -3 1178 -2 1178 25 24 24 25 456 0 455 0 -2
-387z m2179 377 l573 0 0 -759 c0 -750 0 -760 -20 -766 -11 -3 -25 -3 -31 0
-6 4 -17 -2 -25 -14 -10 -13 -26 -21 -45 -21 -16 0 -29 -5 -29 -11 0 -7 -9 -9
-21 -6 -12 3 -27 -1 -37 -11 -10 -9 -26 -18 -37 -19 -48 -6 -91 -16 -100 -24
-27 -21 -387 -29 -1250 -29 -879 0 -922 1 -955 19 -19 10 -44 34 -55 52 -19
33 -20 55 -23 804 -1 423 0 776 3 784 5 12 104 13 742 8 405 -4 994 -7 1310
-7z m-2667 -447 c2 -2 -12 -3 -33 -1 -20 1 -37 6 -37 10 0 7 60 0 70 -9z
m3470 -2768 l0 -995 -1545 0 -1545 0 0 995 0 995 1545 0 1545 0 0 -995z m610
-1090 l0 -115 -120 0 -120 0 0 115 0 115 120 0 120 0 0 -115z m-4130 90 c30
-17 21 -20 -14 -4 -20 9 -33 8 -66 -5 -54 -22 -65 -19 -15 4 49 23 63 23 95 5z
m70 -105 c0 -74 -17 -116 -62 -155 -23 -19 -45 -35 -50 -35 -4 0 -26 16 -47
36 -44 39 -59 74 -63 147 l-3 48 55 22 55 23 57 -20 58 -21 0 -45z m-227 73
c-20 -4 -23 -11 -25 -56 l-1 -52 -4 44 c-5 56 1 71 29 70 l23 -2 -22 -4z m263
-33 c2 -34 1 -34 -3 -3 -3 23 -10 33 -26 37 -18 3 -18 4 3 3 21 -2 25 -7 26
-37z m-26 -155 c-11 -24 -35 -54 -53 -67 -57 -43 -63 -42 -13 2 50 46 75 89
77 137 l2 28 4 -28 c3 -16 -5 -47 -17 -72z m-253 43 c-3 -7 -5 -2 -5 12 0 14
2 19 5 13 2 -7 2 -19 0 -25z m103 -131 c14 -10 18 -15 10 -11 -31 14 -80 56
-92 77 -7 14 1 9 23 -13 19 -20 45 -44 59 -53z"/>
<path d="M1268 4383 c6 -2 18 -2 25 0 6 3 1 5 -13 5 -14 0 -19 -2 -12 -5z"/>
<path d="M3070 4598 c-33 -17 -51 -35 -67 -68 -23 -44 -23 -44 -23 -580 l0
-536 23 -44 c40 -80 57 -85 323 -88 141 -2 247 1 271 7 21 6 54 26 73 46 l35
36 3 571 2 571 -22 34 c-46 67 -75 73 -339 73 -224 0 -237 -1 -279 -22z"/>
<path d="M3905 3560 c3 -5 8 -10 11 -10 2 0 4 5 4 10 0 6 -5 10 -11 10 -5 0
-7 -4 -4 -10z"/>
<path d="M3874 3516 c-9 -20 -9 -23 2 -19 8 3 14 14 14 24 0 25 -3 24 -16 -5z"/>
<path d="M3910 3503 c0 -12 -5 -25 -12 -29 -7 -5 -8 -3 -3 6 6 9 4 11 -4 6 -7
-5 -10 -14 -7 -22 3 -8 1 -14 -4 -14 -6 0 -10 -7 -10 -15 0 -9 -6 -18 -14 -21
-8 -3 -12 -12 -9 -20 4 -10 -2 -17 -16 -21 -13 -3 -21 -13 -21 -27 -1 -21 -1
-21 -15 -2 -8 11 -15 14 -15 8 0 -7 -7 -12 -15 -12 -8 0 -15 -5 -15 -10 0 -7
6 -7 19 0 16 8 22 6 29 -6 7 -13 25 -17 73 -18 l64 -1 -3 100 c-2 55 -8 104
-13 110 -5 5 -9 1 -9 -12z"/>
<path d="M3844 3466 c-3 -8 -1 -22 4 -32 7 -13 9 -10 8 15 -1 34 -4 38 -12 17z"/>
</g>
</svg>
